<svg width="18" height="24" viewBox="0 0 18 24" fill="none" xmlns="http://www.w3.org/2000/svg">
<path d="M1.69087 3.15177L1.6875 5.69886V18.3011C1.6875 19.3353 2.07271 20.3271 2.75839 21.0583C3.44407 21.7896 4.37405 22.2004 5.34375 22.2004H15.0367C14.8621 22.7267 14.5387 23.1824 14.1112 23.5047C13.6837 23.8269 13.173 24 12.6495 24H5.34375C3.9265 24 2.5673 23.3996 1.56515 22.3308C0.563001 21.2621 0 19.8126 0 18.3011V5.69886C0 4.5231 0.705375 3.5213 1.69087 3.15177ZM15.4688 0C15.8012 0 16.1303 0.0698236 16.4374 0.205484C16.7445 0.341145 17.0236 0.539985 17.2586 0.790654C17.4937 1.04132 17.6801 1.33891 17.8073 1.66642C17.9345 1.99394 18 2.34496 18 2.69946V18.2963C18 18.6508 17.9345 19.0019 17.8073 19.3294C17.6801 19.6569 17.4937 19.9545 17.2586 20.2051C17.0236 20.4558 16.7445 20.6547 16.4374 20.7903C16.1303 20.926 15.8012 20.9958 15.4688 20.9958H5.34375C4.67242 20.9958 4.02859 20.7114 3.55389 20.2051C3.07918 19.6989 2.8125 19.0123 2.8125 18.2963V2.69946C2.8125 1.98352 3.07918 1.2969 3.55389 0.790654C4.02859 0.284407 4.67242 0 5.34375 0H15.4688ZM15.4688 1.79964H5.34375C5.11997 1.79964 4.90536 1.89444 4.74713 2.06319C4.5889 2.23194 4.5 2.46081 4.5 2.69946V18.2963C4.5 18.793 4.878 19.1962 5.34375 19.1962H15.4688C15.6925 19.1962 15.9071 19.1014 16.0654 18.9326C16.2236 18.7639 16.3125 18.535 16.3125 18.2963V2.69946C16.3125 2.46081 16.2236 2.23194 16.0654 2.06319C15.9071 1.89444 15.6925 1.79964 15.4688 1.79964Z" fill="white"/>
</svg>
